HIERARCHY
ROOT joint_Root
{
	OFFSET 0.0 0.0 0.0
	CHANNELS 6 Xposition Yposition Zposition Zrotation Xrotation Yrotation 
	JOINT Hips
	{
		OFFSET 4.5925 91.4895 -427.239
		CHANNELS 6 Xposition Yposition Zposition Zrotation Xrotation Yrotation 
		JOINT Spine
		{
			OFFSET 15.7357 0.0 0.0
			CHANNELS 6 Xposition Yposition Zposition Zrotation Xrotation Yrotation 
			JOINT Chest
			{
				OFFSET 8.98455 -0.406207 0.0
				CHANNELS 6 Xposition Yposition Zposition Zrotation Xrotation Yrotation 
				JOINT Neck
				{
					OFFSET 16.3773 0.0 0.0
					CHANNELS 6 Xposition Yposition Zposition Zrotation Xrotation Yrotation 
					JOINT Head
					{
						OFFSET 6.45672 0.0 0.0
						CHANNELS 6 Xposition Yposition Zposition Zrotation Xrotation Yrotation 
						End Site
						{
							OFFSET 0.0 0.0 0.0
						}
					}
				}
				JOINT Shoulder_L
				{
					OFFSET 12.9942 -0.242716 4.98039
					CHANNELS 6 Xposition Yposition Zposition Zrotation Xrotation Yrotation 
					JOINT UpperArm_L
					{
						OFFSET 5.34809 0.0 0.0
						CHANNELS 6 Xposition Yposition Zposition Zrotation Xrotation Yrotation 
						JOINT LowerArm_L
						{
							OFFSET 24.3286 1.87007e-05 0.0
							CHANNELS 6 Xposition Yposition Zposition Zrotation Xrotation Yrotation 
							JOINT Hand_L
							{
								OFFSET 22.2916 0.0 0.0
								CHANNELS 6 Xposition Yposition Zposition Zrotation Xrotation Yrotation 
								End Site
								{
									OFFSET 0.0 0.0 0.0
								}
							}
						}
					}
				}
				JOINT Shoulder_R
				{
					OFFSET 12.9945 -0.242716 -4.98039
					CHANNELS 6 Xposition Yposition Zposition Zrotation Xrotation Yrotation 
					JOINT UpperArm_R
					{
						OFFSET -5.34813 0.0 0.0
						CHANNELS 6 Xposition Yposition Zposition Zrotation Xrotation Yrotation 
						JOINT LowerArm_R
						{
							OFFSET -24.3289 0.000322201 0.0
							CHANNELS 6 Xposition Yposition Zposition Zrotation Xrotation Yrotation 
							JOINT Hand_R
							{
								OFFSET -22.2915 -0.000108084 0.0
								CHANNELS 6 Xposition Yposition Zposition Zrotation Xrotation Yrotation 
								End Site
								{
									OFFSET 0.0 0.0 0.0
								}
							}
						}
					}
				}
			}
		}
		JOINT UpperLeg_L
		{
			OFFSET -2.19248 -6.46944 0.0
			CHANNELS 6 Xposition Yposition Zposition Zrotation Xrotation Yrotation 
			JOINT LowerLeg_L
			{
				OFFSET 39.0811 0.0 -1.23785e-05
				CHANNELS 6 Xposition Yposition Zposition Zrotation Xrotation Yrotation 
				JOINT Foot_L
				{
					OFFSET 40.9854 0.0 -1.26872e-05
					CHANNELS 6 Xposition Yposition Zposition Zrotation Xrotation Yrotation 
					JOINT Toes_L
					{
						OFFSET 11.7543 0.0 0.0
						CHANNELS 6 Xposition Yposition Zposition Zrotation Xrotation Yrotation 
						End Site
						{
							OFFSET 0.0 0.0 0.0
						}
					}
				}
			}
		}
		JOINT UpperLeg_R
		{
			OFFSET -2.19251 6.46944 0.0
			CHANNELS 6 Xposition Yposition Zposition Zrotation Xrotation Yrotation 
			JOINT LowerLeg_R
			{
				OFFSET -39.0811 -0.00228153 -0.0401928
				CHANNELS 6 Xposition Yposition Zposition Zrotation Xrotation Yrotation 
				JOINT Foot_R
				{
					OFFSET -40.9854 0.0 0.0
					CHANNELS 6 Xposition Yposition Zposition Zrotation Xrotation Yrotation 
					JOINT Toes_R
					{
						OFFSET -11.7543 0.0 0.0
						CHANNELS 6 Xposition Yposition Zposition Zrotation Xrotation Yrotation 
						End Site
						{
							OFFSET 0.0 0.0 0.0
						}
					}
				}
			}
		}
	}
}
MOTION
Frames:	6
Frame Time:	0.0333333
0.000000 0.000000 0.000000 0.000000 0.000000 -0.000000 133.751000 87.547300 -90.009800 88.380000 -0.168572 2.493410 15.735700 0.000005 -0.000001 68.583900 83.410700 -66.544600 8.984550 -0.406207 -0.000000 4.605850 -4.859750 4.271630 16.377300 -0.000001 -0.000001 -2.596200 -4.190910 4.542930 6.456720 -0.000001 -0.000000 -6.995210 -1.604510 10.611300 12.994200 -0.242716 4.980390 -90.414900 1.682960 -76.148800 5.348090 -0.000007 -0.000001 -60.608600 28.678400 -27.997700 24.328600 0.000019 0.000005 9.785830 11.371000 -41.178900 22.291600 -0.000001 0.000005 18.583400 5.279050 0.651763 12.994500 -0.242716 -4.980390 87.330300 11.546300 -76.886100 -5.348130 -0.000001 -0.000004 -63.129300 19.128100 -2.910030 -24.328900 0.000322 -0.000009 0.818361 3.694200 -12.516700 -22.291500 -0.000108 -0.000004 14.294100 5.313170 -0.299967 -2.192480 -6.469440 -0.000000 -173.081000 1.720220 -8.505660 39.081100 -0.000007 -0.000012 0.125036 -0.050478 68.013400 40.985400 -0.000006 -0.000013 5.480360 -1.917410 -56.791800 11.754300 -0.000000 0.000003 -0.007977 -0.087856 -20.154300 -2.192510 6.469440 -0.000001 178.329000 7.414640 170.578000 -39.081100 -0.002282 -0.040193 0.042169 -0.039863 44.301300 -40.985400 0.000008 0.000006 5.693470 4.298330 -79.467400 -11.754300 -0.000006 -0.000006 -0.258838 -0.316746 -16.689300
0.000000 0.000000 0.000000 0.000000 0.000000 -0.000000 133.609000 88.398200 -87.399500 89.321500 -0.309487 2.508200 15.735700 0.000005 -0.000001 72.060000 83.715100 -70.355000 8.984550 -0.406207 -0.000000 4.261410 -3.917770 3.552970 16.377300 -0.000001 -0.000001 -2.476350 -4.824140 4.657540 6.456720 -0.000001 -0.000000 -6.492720 -3.097870 10.662000 12.994200 -0.242716 4.980390 -90.404100 1.608200 -75.892500 5.348090 -0.000007 -0.000001 -62.288400 32.008100 -24.986000 24.328600 0.000019 0.000005 9.199850 11.981600 -37.960700 22.291600 -0.000001 0.000005 17.250600 5.284920 0.490765 12.994500 -0.242716 -4.980390 87.423600 11.485900 -77.266500 -5.348130 -0.000001 -0.000004 -62.748300 20.866300 -4.827480 -24.328900 0.000322 -0.000009 0.843902 3.058470 -15.454600 -22.291500 -0.000108 -0.000004 15.268100 5.342590 -1.155470 -2.192480 -6.469440 -0.000000 -174.693000 -0.051463 -11.838200 39.081100 -0.000007 -0.000012 0.122393 -0.046146 69.339700 40.985400 -0.000006 -0.000013 7.193860 -5.055460 -58.004400 11.754300 -0.000000 0.000003 -0.006783 -0.077802 -19.743900 -2.192510 6.469440 -0.000001 177.056000 7.990760 173.871000 -39.081100 -0.002282 -0.040193 0.034827 -0.036034 41.206300 -40.985400 0.000008 0.000006 5.976050 5.126860 -77.990700 -11.754300 -0.000006 -0.000006 -0.002167 -0.030784 -17.824900
0.000000 0.000000 0.000000 0.000000 0.000000 -0.000000 133.533000 89.308900 -85.022600 89.960500 -0.876320 1.897880 15.735700 0.000005 -0.000001 76.470700 84.150200 -74.995600 8.984550 -0.406207 -0.000000 3.650200 -2.786490 3.036270 16.377300 -0.000001 -0.000001 -2.595960 -5.229960 4.623120 6.456720 -0.000001 -0.000000 -6.398630 -4.221540 10.545800 12.994200 -0.242716 4.980390 -90.394600 1.526770 -75.505700 5.348090 -0.000007 -0.000001 -64.310000 35.331700 -21.613800 24.328600 0.000019 0.000005 8.989010 13.576000 -33.977400 22.291600 -0.000001 0.000005 15.147400 5.285950 0.462926 12.994500 -0.242716 -4.980390 87.697400 10.984700 -78.084400 -5.348130 -0.000001 -0.000004 -62.486500 22.200100 -6.831990 -24.328900 0.000322 -0.000009 0.703792 2.100060 -18.564100 -22.291500 -0.000108 -0.000004 16.374600 5.372050 -2.049000 -2.192480 -6.469440 -0.000000 -176.033000 -1.150680 -15.394200 39.081100 -0.000007 -0.000012 0.117997 -0.047507 68.067200 40.985400 -0.000006 -0.000013 7.379530 -4.225580 -59.422800 11.754300 -0.000000 0.000003 -0.007414 -0.083186 -19.963600 -2.192510 6.469440 -0.000001 175.947000 8.698320 175.949000 -39.081100 -0.002282 -0.040193 0.032001 -0.036067 38.528500 -40.985400 0.000008 0.000006 6.505950 6.822370 -75.576100 -11.754300 -0.000006 -0.000006 -0.007819 -0.086545 -20.097100
0.000000 0.000000 0.000000 0.000000 0.000000 -0.000000 133.523000 90.159500 -82.749800 90.499600 -1.411460 1.075760 15.735700 0.000005 -0.000001 80.856300 84.518900 -79.620200 8.984550 -0.406207 -0.000000 3.078780 -1.790760 2.517830 16.377300 -0.000001 -0.000001 -3.078650 -5.297850 4.700090 6.456720 -0.000001 -0.000000 -6.680640 -5.003350 10.276500 12.994200 -0.242716 4.980390 -90.389600 1.477430 -75.227600 5.348090 -0.000007 -0.000001 -66.973800 37.721200 -17.546500 24.328600 0.000019 0.000005 8.889010 15.931500 -29.675800 22.291600 -0.000001 0.000005 12.689800 5.282410 0.560882 12.994500 -0.242716 -4.980390 88.003000 10.372600 -79.040100 -5.348130 -0.000001 -0.000004 -61.898200 23.364300 -9.156660 -24.328900 0.000322 -0.000009 0.272925 0.691365 -21.633200 -22.291500 -0.000108 -0.000004 16.844700 5.393500 -2.726990 -2.192480 -6.469440 -0.000000 -177.118000 -1.366420 -18.633500 39.081100 -0.000007 -0.000012 0.105159 -0.050658 64.276300 40.985400 -0.000006 -0.000013 5.867540 -1.486740 -61.659900 11.754300 -0.000000 0.000003 -0.006345 -0.073944 -19.586500 -2.192510 6.469440 -0.000001 174.841000 9.616230 177.566000 -39.081100 -0.002282 -0.040193 0.029705 -0.036263 36.072900 -40.985400 0.000008 0.000006 6.794510 8.832350 -72.866800 -11.754300 -0.000006 -0.000006 -0.016788 -0.148801 -22.647100
0.000000 0.000000 0.000000 0.000000 0.000000 -0.000000 133.634000 90.733900 -80.514000 90.982300 -2.033700 0.259275 15.735700 0.000005 -0.000001 85.533200 84.819500 -84.541600 8.984550 -0.406207 -0.000000 2.571860 -0.851178 2.000310 16.377300 -0.000001 -0.000001 -3.692740 -5.271520 4.732690 6.456720 -0.000001 -0.000000 -7.248440 -5.406330 9.907150 12.994200 -0.242716 4.980390 -90.439600 1.646450 -75.048300 5.348090 -0.000007 -0.000001 -70.079400 38.849700 -12.775600 24.328600 0.000019 0.000005 8.522220 18.668200 -25.088300 22.291600 -0.000001 0.000005 10.195000 5.279050 0.652767 12.994500 -0.242716 -4.980390 88.284500 9.701470 -79.922400 -5.348130 -0.000001 -0.000004 -60.898400 24.382200 -11.732600 -24.328900 0.000322 -0.000009 -0.127259 -0.276929 -24.466700 -22.291500 -0.000108 -0.000004 16.893800 5.404180 -3.073880 -2.192480 -6.469440 -0.000000 -177.973000 -1.292610 -21.386500 39.081100 -0.000007 -0.000012 0.085351 -0.052426 58.437700 40.985400 -0.000006 -0.000013 4.185230 0.874004 -63.444400 11.754300 -0.000000 0.000003 -0.006997 -0.079649 -19.819300 -2.192510 6.469440 -0.000001 173.715000 10.456200 178.861000 -39.081100 -0.002282 -0.040193 0.030273 -0.039674 34.217400 -40.985400 0.000008 0.000006 7.225150 10.720000 -70.677800 -11.754300 -0.000006 -0.000006 -0.027721 -0.206821 -25.040800
0.000000 0.000000 0.000000 0.000000 0.000000 -0.000000 133.814000 91.023200 -78.305900 91.191400 -2.675390 -0.661414 15.735700 0.000005 -0.000001 90.600800 85.064800 -89.801300 8.984550 -0.406207 -0.000000 2.103880 0.063948 1.596400 16.377300 -0.000001 -0.000001 -4.375640 -5.165330 4.636120 6.456720 -0.000001 -0.000000 -8.076650 -5.675530 9.516930 12.994200 -0.242716 4.980390 -90.499500 1.860160 -74.966800 5.348090 -0.000007 -0.000001 -73.257000 38.097900 -7.888160 24.328600 0.000019 0.000005 7.991740 22.111600 -20.456900 22.291600 -0.000001 0.000005 7.981880 5.266310 1.001170 12.994500 -0.242716 -4.980390 88.528100 9.058790 -80.731400 -5.348130 -0.000001 -0.000004 -59.481700 25.316500 -14.481800 -24.328900 0.000322 -0.000009 -0.362266 -0.707531 -27.048600 -22.291500 -0.000108 -0.000004 17.050800 5.412670 -3.353650 -2.192480 -6.469440 -0.000000 -178.376000 -1.661460 -23.778800 39.081100 -0.000007 -0.000012 0.062545 -0.050857 50.882800 40.985400 -0.000006 -0.000013 2.754940 1.979450 -64.075900 11.754300 -0.000000 0.000003 -0.007712 -0.085676 -20.065300 -2.192510 6.469440 -0.000001 172.893000 11.145900 179.840000 -39.081100 -0.002282 -0.040193 0.030981 -0.042918 32.825300 -40.985400 0.000008 0.000006 7.580010 12.246200 -69.061300 -11.754300 -0.000006 -0.000006 -0.039760 -0.259152 -27.217800
